# xmcd
#
# Track frame offsets: 
#        150
#        16707
#        35607
#        54655
#        71145
#        93279
#        113207
#        131100
#
# Disc length: 1966 seconds
#
# Revision: 7
# Processed by: cddbd v1.5.2PL0 Copyright (c) Steve Scherf et al.
# Submitted via: ExactAudioCopyFreeDBPlugin 1.0
#
DISCID=6a07ac08
DTITLE=양파 - 1집 애송이의 사랑
DYEAR=1996
DGENRE=K-pop
TTITLE0=애송이의 사랑
TTITLE1=비타민
TTITLE2=Forever with you(천사의 시)
TTITLE3=Don't U want me
TTITLE4=괜찮아
TTITLE5=뱀파이어
TTITLE6=Internet Girl (야후)
TTITLE7=Heart Beat Away
EXTD=
EXTT0=
EXTT1=
EXTT2=
EXTT3=
EXTT4=
EXTT5=
EXTT6=
EXTT7=
PLAYORDER=
